#!OML:ASF E:\Steps\Project 1\Capture day 1\Session 2\Subject.ASF
:FULLY-SPECIFIED
:DEGREES
514
root 12.0771 17.9508 9.83086 -144.271 -2.36742 174.193
lowerback -13.3393 -2.4607 -6.04464
upperback 1.81276 -2.2507 -1.40209
thorax 9.6602 -1.40579 1.40544
lowerneck -1.93268 3.02311 -1.28545
upperneck 5.22126 4.18442 -0.46071
head 1.93625 2.0771 0.16689
rclavicle -5.36719e-015 9.34288e-015
rhumerus -34.6587 13.3308 -81.9332
rradius 44.662
rwrist -11.301
rhand -7.78054 -47.493
rfingers 7.12502
rthumb 18.12 -436.669
lclavicle -5.36719e-015 9.34288e-015
lhumerus -27.6112 -22.2582 77.4263
lradius 46.0687
lwrist 4.11899
lhand -21.7358 -15.0426
lfingers 7.12502
lthumb 4.66392 14.8861
rfemur -49.9427 -0.221706 17.4139
rtibia 27.737
rfoot -22.6813 -8.94365
rtoes -17.3667
lfemur -55.2664 -15.228 -18.1143
ltibia 46.3342
lfoot -15.9319 2.04671
ltoes -42.6513
515
root 12.1145 17.9689 9.78695 -144.445 -2.44084 174.4
lowerback -13.6493 -2.44253 -6.25777
upperback 1.80304 -2.17086 -1.34038
thorax 9.8355 -1.38365 1.59805
lowerneck -1.96195 3.07677 -1.34973
upperneck 5.46208 4.11799 -0.36369
head 2.01618 1.98844 0.207992
rclavicle -8.15017e-015 -3.10104e-014
rhumerus -34.9287 13.1296 -82.2347
rradius 44.4369
rwrist -11.0536
rhand -7.79768 -47.4147
rfingers 7.12502
rthumb 18.1035 -436.592
lclavicle -8.15017e-015 -3.10104e-014
lhumerus -27.8211 -21.5912 77.6363
lradius 45.8993
lwrist 3.83659
lhand -21.8861 -15.3941
lfingers 7.12502
lthumb 4.51874 14.5377
rfemur -49.23 0.0163796 17.762
rtibia 27.0547
rfoot -22.6165 -8.75935
rtoes -16.8767
lfemur -55.0903 -15.3969 -18.1075
ltibia 44.9529
lfoot -15.8117 1.78903
ltoes -45.0233
516
root 12.1526 17.9835 9.74009 -144.666 -2.43776 174.554
lowerback -13.9552 -2.37275 -6.56566
upperback 1.73187 -2.00685 -1.34268
thorax 9.93364 -1.32447 1.79671
lowerneck -1.84132 3.05736 -1.28844
upperneck 5.84248 4.06805 -0.218653
head 2.11718 1.95933 0.244068
rclavicle 1.70955e-014 2.76311e-014
rhumerus -35.5018 12.8447 -82.6361
rradius 44.3261
rwrist -10.9866
rhand -7.95585 -47.2813
rfingers 7.12502
rthumb 17.9513 -436.473
lclavicle 1.70955e-014 2.76311e-014
lhumerus -28.081 -21.1562 77.8532
lradius 45.6027
lwrist 3.60453
lhand -22.0653 -15.5425
lfingers 7.12502
lthumb 4.34567 14.3929
rfemur -48.4297 0.229925 18.0667
rtibia 26.3127
rfoot -22.4813 -8.67826
rtoes -17.1073
lfemur -54.7682 -15.5332 -18.1757
ltibia 43.6116
lfoot -15.8442 1.41157
ltoes -46.2726
517
root 12.1884 18.0003 9.69389 -144.906 -2.48599 174.672
lowerback -14.2768 -2.29988 -6.82721
upperback 1.69503 -1.83992 -1.37387
thorax 10.074 -1.26266 1.93852
lowerneck -1.71771 3.05932 -1.14422
upperneck 6.26732 4.04039 -0.0870805
head 2.23466 1.94166 0.263087
rclavicle -6.95746e-015 9.93923e-015
rhumerus -35.9511 12.3766 -83.0301
rradius 43.9553
rwrist -10.8497
rhand -7.93705 -47.0004
rfingers 7.12502
rthumb 17.9694 -436.19
lclavicle -6.95746e-015 9.93923e-015
lhumerus -28.3541 -20.9142 78.0687
lradius 45.3782
lwrist 3.59224
lhand -22.3453 -15.4983
lfingers 7.12502
lthumb 4.07534 14.4424
rfemur -47.5721 0.282108 18.4061
rtibia 25.5097
rfoot -22.189 -8.5557
rtoes -17.8559
lfemur -54.4435 -15.7127 -18.2303
ltibia 42.3569
lfoot -15.7756 1.13718
ltoes -46.3779
518
root 12.2243 18.0157 9.65865 -144.92 -2.62759 174.687
lowerback -14.6586 -2.41288 -7.1393
upperback 1.61811 -1.91592 -1.28119
thorax 10.233 -1.32241 2.18598
lowerneck -1.71524 3.10552 -1.21712
upperneck 6.50984 4.10088 -0.151262
head 2.31376 1.96239 0.259444
rclavicle -1.37161e-014 -3.37934e-014
rhumerus -36.2456 12.4307 -83.245
rradius 43.7607
rwrist -10.753
rhand -7.64562 -46.966
rfingers 7.12502
rthumb 18.2498 -436.13
lclavicle -1.37161e-014 -3.37934e-014
lhumerus -28.6444 -20.2418 78.3589
lradius 45.167
lwrist 3.78836
lhand -23.0357 -15.532
lfingers 7.12502
lthumb 3.40859 14.4205
rfemur -47.0485 0.27266 18.6341
rtibia 24.8346
rfoot -21.8827 -8.50482
rtoes -18.0296
lfemur -54.4644 -15.8686 -18.2891
ltibia 41.2412
lfoot -15.636 0.606987
ltoes -43.9563
519
root 12.2656 18.0251 9.6417 -144.414 -2.93571 174.617
lowerback -15.3023 -2.6479 -7.50092
upperback 1.34722 -2.14056 -1.14119
thorax 10.3464 -1.45463 2.4723
lowerneck -1.62367 3.17009 -1.37182
upperneck 6.63497 4.18258 -0.111969
head 2.33379 1.99625 0.29942
rclavicle -4.37326e-015 -1.86858e-014
rhumerus -36.6528 12.6 -83.4207
rradius 43.8812
rwrist -10.5486
rhand -7.10454 -47.3079
rfingers 7.12502
rthumb 18.7703 -436.422
lclavicle -4.37326e-015 -1.86858e-014
lhumerus -28.8505 -19.4184 78.5578
lradius 44.8918
lwrist 3.97688
lhand -23.2344 -15.5801
lfingers 7.12502
lthumb 3.21671 14.3754
rfemur -47.2469 0.274973 18.7602
rtibia 24.3769
rfoot -21.8517 -8.7238
rtoes -17.3335
lfemur -55.2325 -16.0043 -18.1853
ltibia 40.4159
lfoot -15.4837 -0.0501377
ltoes -41.7639
520
root 12.297 18.0361 9.59291 -144.791 -2.94791 174.896
lowerback -15.5998 -2.57739 -7.50597
upperback 1.42721 -2.01084 -1.14566
thorax 10.5945 -1.40052 2.49075
lowerneck -1.55923 3.17377 -1.41434
upperneck 6.76465 4.1677 0.109485
head 2.35918 1.98996 0.37622
rclavicle -1.98785e-016 5.1684e-015
rhumerus -36.9303 12.3114 -83.7118
rradius 43.7646
rwrist -10.377
rhand -6.6272 -47.6454
rfingers 7.12502
rthumb 19.2293 -436.715
lclavicle -1.98785e-016 5.1684e-015
lhumerus -29.0045 -18.8747 78.5488
lradius 44.8408
lwrist 4.00366
lhand -22.7223 -15.5651
lfingers 7.12502
lthumb 3.71132 14.3823
rfemur -46.2198 0.489409 19.2543
rtibia 23.6
rfoot -21.9978 -8.50779
rtoes -16.9413
lfemur -54.6121 -15.9063 -18.1709
ltibia 39.2936
lfoot -15.4061 -0.287007
ltoes -41.3677
521
root 12.3292 18.0488 9.54607 -145.274 -2.87497 175.028
lowerback -15.6454 -2.59059 -7.67462
upperback 1.47689 -1.98973 -1.14148
thorax 10.6822 -1.40399 2.59238
lowerneck -1.53775 3.20316 -1.66153
upperneck 6.90708 4.19881 0.280289
head 2.39317 1.99971 0.473843
rclavicle 2.0276e-014 2.82274e-014
rhumerus -37.1689 12.3469 -84.048
rradius 43.4816
rwrist -10.6489
rhand -6.76352 -47.558
rfingers 7.12502
rthumb 19.0983 -436.64
lclavicle 2.0276e-014 2.82274e-014
lhumerus -29.3677 -18.1633 78.5953
lradius 44.7902
lwrist 3.77417
lhand -22.6353 -15.2397
lfingers 7.12502
lthumb 3.79524 14.7062
rfemur -45.1813 0.832818 19.4317
rtibia 22.9608
rfoot -21.9888 -8.48806
rtoes -16.9206
lfemur -53.8245 -15.7617 -18.3993
ltibia 38.2165
lfoot -15.1156 -0.497834
ltoes -39.9411
522
root 12.3623 18.062 9.49852 -145.761 -2.83985 174.955
lowerback -15.5169 -2.60808 -8.0344
upperback 1.45559 -1.95884 -1.22225
thorax 10.5927 -1.40811 2.71765
lowerneck -1.54082 3.19091 -1.70324
upperneck 7.1394 4.16364 0.444036
head 2.46681 1.97935 0.535051
rclavicle -4.37326e-015 1.51076e-014
rhumerus -37.6442 12.1943 -84.4385
rradius 43.3608
rwrist -10.8969
rhand -6.92257 -47.1665
rfingers 7.12502
rthumb 18.9453 -436.264
lclavicle -4.37326e-015 1.51076e-014
lhumerus -29.7483 -17.7293 78.5899
lradius 44.5921
lwrist 3.69709
lhand -22.8784 -14.8238
lfingers 7.12502
lthumb 3.56049 15.1262
rfemur -44.2041 1.17602 19.3229
rtibia 22.4504
rfoot -21.9591 -8.71162
rtoes -17.2046
lfemur -52.8824 -15.7082 -18.8215
ltibia 36.9698
lfoot -14.7364 -0.614576
ltoes -39.191
523
root 12.3938 18.0656 9.4489 -145.862 -3.07747 175.006
lowerback -15.8804 -2.56444 -8.10317
upperback 1.36807 -1.85477 -1.36539
thorax 10.6896 -1.3639 2.61591
lowerneck -1.62547 3.13137 -1.28241
upperneck 7.53407 4.03807 0.649623
head 2.61968 1.92475 0.533172
rclavicle -2.38542e-015 2.34566e-014
rhumerus -38.144 11.3902 -84.8576
rradius 43.2546
rwrist -10.8587
rhand -6.87995 -46.8474
rfingers 7.12502
rthumb 18.9863 -435.941
lclavicle -2.38542e-015 2.34566e-014
lhumerus -29.9689 -17.7696 78.4639
lradius 44.3981
lwrist 3.76615
lhand -23.1232 -14.8746
lfingers 7.12502
lthumb 3.32408 15.0793
rfemur -43.6463 1.27763 19.544
rtibia 22.0415
rfoot -22.0048 -8.82284
rtoes -17.4374
lfemur -52.4496 -15.7547 -18.8714
ltibia 35.9032
lfoot -14.5017 -0.689294
ltoes -40.0958
